<svg xmlns="http://www.w3.org/2000/svg" viewBox="0 0 240 180" fill="none">
  <g opacity="0.9">
    <g fill="#88c0d0" fill-opacity="0.14">
      <rect x="40" y="10" width="30" height="30" rx="6"/><rect x="74" y="10" width="30" height="30" rx="6"/><rect x="108" y="10" width="30" height="30" rx="6"/><rect x="142" y="10" width="30" height="30" rx="6"/><rect x="176" y="10" width="30" height="30" rx="6"/>
      <rect x="40" y="44" width="30" height="30" rx="6"/><rect x="74" y="44" width="30" height="30" rx="6"/><rect x="108" y="44" width="30" height="30" rx="6"/><rect x="142" y="44" width="30" height="30" rx="6"/><rect x="176" y="44" width="30" height="30" rx="6"/>
      <rect x="40" y="78" width="30" height="30" rx="6"/><rect x="74" y="78" width="30" height="30" rx="6"/><rect x="108" y="78" width="30" height="30" rx="6"/><rect x="142" y="78" width="30" height="30" rx="6"/><rect x="176" y="78" width="30" height="30" rx="6"/>
      <rect x="40" y="112" width="30" height="30" rx="6"/><rect x="74" y="112" width="30" height="30" rx="6"/><rect x="108" y="112" width="30" height="30" rx="6"/><rect x="142" y="112" width="30" height="30" rx="6"/><rect x="176" y="112" width="30" height="30" rx="6"/>
      <rect x="40" y="146" width="30" height="30" rx="6"/><rect x="74" y="146" width="30" height="30" rx="6"/><rect x="108" y="146" width="30" height="30" rx="6"/><rect x="142" y="146" width="30" height="30" rx="6"/><rect x="176" y="146" width="30" height="30" rx="6"/>
    </g>
    <path d="M14 93 H123 V25 H191 V161" stroke="#88c0d0" stroke-width="3" stroke-linecap="round" stroke-linejoin="round" stroke-dasharray="1 7"/>
    <g stroke="#d08770" stroke-width="5" stroke-linecap="round">
      <path d="M113 103 L133 83"/><path d="M113 15 L133 35"/><path d="M181 15 L201 35"/>
    </g>
    <path d="M147 117 L167 137" stroke="#a3be8c" stroke-width="5" stroke-linecap="round"/>
    <circle cx="14" cy="93" r="7" fill="#88c0d0"/>
  </g>
</svg>
